<?xml version="1.0" encoding="UTF-8" standalone="no"?>
<!DOCTYPE svg PUBLIC "-//W3C//DTD SVG 1.1//EN" "http://www.w3.org/Graphics/SVG/1.1/DTD/svg11.dtd">
<svg width="796.5" height="346.5" viewBox="-0.5 -0.5 531 231" xmlns="http://www.w3.org/2000/svg" xmlns:xlink="http://www.w3.org/1999/xlink">
<!-- <svg width="100" height="100" viewBox="80 10 100 100" xmlns="http://www.w3.org/2000/svg" xmlns:xlink="http://www.w3.org/1999/xlink"> -->

<!-- color palette
  https://coolors.co/cae7b9-f3de8a-eb9486-7e7f9a-dcdfe5-97a7b3
-->
<!-- <svg width="796.5" height="391.5" viewBox="0 -30 531 261" xmlns="http://www.w3.org/2000/svg" xmlns:xlink="http://www.w3.org/1999/xlink"> -->
  <g>
    <rect x="0"   y="-30"  width="20" height="30" fill="#CAE7B9" />
    <rect x="20"  y="-30"  width="20" height="30" fill="#F3DE8A" />
    <rect x="40"  y="-30"  width="20" height="30" fill="#EB9486" />
    <rect x="60"  y="-30"  width="20" height="30" fill="#7E7F9A" />
    <rect x="80"  y="-30"  width="20" height="30" fill="#DCDFE5" />
    <rect x="100" y="-30"  width="20" height="30" fill="#97A7B3" />
  </g>


  <style>
    text {
      font-family: sans-serif,Verdana,Tahoma;
    }

    .font-mono {
      font-family:SF Mono,Consolas,DejaVu Sans Mono,Roboto Mono;
    }

    .reserve-ws {
      white-space: pre;
    }
  </style>

  <rect fill="#fff" stroke="#000" x="0" y="0" width="530" height="210" />

  <g>
    <path d="m0.5 207 h528.5" stroke="#DCDFE5" stroke-width="4" />
    <path d="m0.5 207 h528.5" stroke="#7fd05f" stroke-width="4">
      <animate
        attributeType="XML"
        attributeName="stroke"
        values  ="#7fd05f;#d05fb8;#5fb2d0"
        keyTimes="0      ;0.5    ;1"
        dur="20s"
        repeatCount="indefinite" />
      <animate
        attributeType="XML"
        attributeName="stroke-dasharray"
        from="0 528.5"
        to="528.5 528.5"
        dur="20s"
        repeatCount="indefinite" />
    </path>
  </g>



  <g transform="translate(50,20)">
  </g>

  <g transform="translate(100, 70)">
    <line x1="201" x2="65" y1="26" y2="26" stroke="#ECEFF5" stroke-width="4" stroke-dashoffset="0">
      <animate attributeType="CSS"
        attributeName="opacity"
        values=  "0; 0.4 ; 0.7; 1   ; 1   ; 0"
        keyTimes="0; 0.04; 0.4; 0.44; 0.95; 1"
        dur="20s"
        repeatCount="indefinite"/>
    </line>

    <!-- step 1: set routes/scripts/events -->
    <g>
      <!-- notify valkey sync -->
      <g>
        <path id="_notifying-sync-command-route" d="m231 -13 h-153" fill="none" stroke="none" visibility="hidden" />
        <path d="m231 0 v-5 a8 8 0 0 0 -8 -8 h-165 " fill="none" stroke="#DCDFE5" stroke-width="4" opacity="0.3">
          <animate attributeType="CSS"
            attributeName="opacity"
            values=  "0; 0    ; 0.3   ; 0.3 ; 0  ; 0"
            keyTimes="0; 0.275; 0.3125; 0.3875; 0.4; 1"
            dur="20s"
            repeatCount="indefinite"/>
        </path>
        <use xlink:href="#envelope" transform="scale(0.45) translate(0,-5)" fill="#f1c121" x="-20" y="-10">
          <animate attributeType="CSS"
            attributeName="opacity"
            values=  "0; 0   ; 1    ; 1     ; 0  ; 0"
            keyTimes="0; 0.25; 0.275; 0.3875; 0.4; 1"
            dur="20s"
            repeatCount="indefinite"/>
          <animateMotion
              keyPoints="0; 0     ; 0.1  ; 1     ; 1"
              keyTimes ="0; 0.3125; 0.315; 0.3875; 1"
              dur="20s"
              repeatCount="indefinite">
            <mpath xlink:href="#_notifying-sync-command-route" />
          </animateMotion>
        </use>
        <text x="-9" y="-10" font-size="9" class="font-mono" fill="#7E7F9A">
          NOTIFY
          <animate attributeType="CSS"
            attributeName="opacity"
            values=  "0; 0   ; 1    ; 1     ; 0  ; 0"
            keyTimes="0; 0.25; 0.275; 0.3875; 0.4; 1"
            dur="20s"
            repeatCount="indefinite"/>
          <animateMotion
              keyPoints="0; 0     ; 0.1  ; 1     ; 1"
              keyTimes ="0; 0.3125; 0.315; 0.3875; 1"
              dur="20s"
              repeatCount="indefinite">
            <mpath xlink:href="#_notifying-sync-command-route" />
          </animateMotion>
        </text>
      </g>

      <!-- receiving sync command -->
      <g visibility="hidden">
        <text x="68" y="-10" font-size="7px" font-weight="bold" fill="#97A7B3">SYNC</text>
        <animate attributeType="CSS"
          attributeName="opacity"
          values=  "0; 0     ; 1  ; 1   ; 0     ; 0"
          keyTimes="0; 0.3875; 0.4; 0.45; 0.4625; 1"
          dur="20s"
          repeatCount="indefinite"/>
        <animate attributeType="CSS"
          attributeName="visibility"
          values="hidden;visible;hidden ;hidden"
          keyTimes="   0; 0.3875; 0.4625; 1"
          dur="20s"
          repeatCount="indefinite"/>
        <animateTransform attributeName="transform"
          type="translate"
          values  ="0,0; 0,0   ; 0,-2; 0,-24 ; 0,-24"
          keyTimes="0  ; 0.3875; 0.4  ; 0.4375; 1"
          dur="20s"
          repeatCount="indefinite" />
      </g>

      <!-- thinking man -->
      <g transform="translate(371,70)">
        <use xlink:href="#thinking_man" transform="scale(0.08)" fill="#97A7B3">
          <animate attributeName="visibility"
            values  ="visible; hidden; hidden"
            keyTimes="      0; 0.2375; 1"
            dur="20s"
            repeatCount="indefinite" />
          <animate
            attributeName="opacity"
            values=  "0; 1     ; 1     ; 0     ; 0"
            keyTimes="0; 0.0125; 0.2125; 0.2375; 1"
            dur="20s"
            repeatCount="indefinite"/>
        </use>
      </g>

      <!-- thinking round -->
      <g transform="translate(315,8)">
        <circle r="5.5" cx="68" cy="57" fill="#DCDFE5">
          <animate attributeName="visibility"
            values  ="hidden; visible; hidden; hidden"
            keyTimes="     0; 0.025 ; 0.25  ; 1"
            dur="20s"
            repeatCount="indefinite" />
          <animate
            attributeName="opacity"
            values=  "0; 0    ; 1    ; 1    ; 0   ; 0"
            keyTimes="0; 0.025; 0.075; 0.225; 0.25; 1"
            dur="20s"
            repeatCount="indefinite"/>
        </circle>

        <g transform="translate(27, 30)">
          <use xlink:href="#thinking_round" x="-25" y="-30" fill="#DCDFE5" />

          <use x="-3" y="-5" transform="scale(1.5)" fill="#ffbb00" xlink:href="#lightning">
            <animate
              attributeName="opacity"
              values=  "0; 0    ; 1     ; 1   ; 0.3   ; 0.3"
              keyTimes="0; 0.075; 0.0875; 0.15; 0.1625; 1"
              dur="20s"
              repeatCount="indefinite"/>
          </use>
          <use x="5.5" y="-9.5" transform="scale(1.5)" stroke="#bb00ff" xlink:href="#script">
            <animate
              attributeName="opacity"
              values=  "0; 0     ; 1  ; 1     ; 0.1  ; 0.1"
              keyTimes="0; 0.0875; 0.1; 0.1625; 0.175; 1"
              dur="20s"
              repeatCount="indefinite"/>
          </use>
          <use x="4" y="1" transform="scale(1.5)" fill="#00bbff" xlink:href="#landmark">
            <animate
              attributeName="opacity"
              values=  "0; 0  ; 1     ; 1    ; 0.25  ; 0.25"
              keyTimes="0; 0.1; 0.1125; 0.175; 0.1875; 1"
              dur="20s"
              repeatCount="indefinite"/>
          </use>

          <animate attributeName="visibility"
            values  ="hidden; visible; hidden; hidden"
            keyTimes="     0; 0.05 ; 0.2625; 1"
            dur="20s"
            repeatCount="indefinite" />
          <animate
            attributeName="opacity"
            values=  "0; 0   ; 1    ; 1     ; 0     ; 0"
            keyTimes="0; 0.05; 0.125; 0.2375; 0.2625; 1"
            dur="20s"
            repeatCount="indefinite"/>
        </g>
      </g>

      <!-- iungo namespace box -->
      <g transform="translate(180,70)">
        <pattern id="namespace-box-init" viewBox="0,0,60,40" width="50%" height="100%" x="40%">
          <rect x="2" y="2" width="56" height="36" rx="5" fill="#DCDFE5" />
          <animate attributeName="x"
            values  ="40%; 40%; -625% ; -925%; -960%; -960%"
            keyTimes="0  ; 0.1;  0.125; 0.15 ; 0.175; 1"
            dur="20s"
            repeatCount="indefinite" />
        </pattern>

        <path d="m8 5 a8 8 0 0 0 -8 8 v40 a8 8 0 0 0 8 8 h114 a8 8 0 0 0 8 -8 v-40 a8 8 0 0 0 -8 -8 h-54" fill="none" stroke="#97A7B3" />
        <text font-size="9" x="12" y="1" font-weight="600" alignment-baseline="hanging" fill="#7E7F9A">
          namespace
        </text>
        <rect x="5" y="15" width="120" height="40" fill="url(#namespace-box-init)"></rect>

        <animate
          attributeName="opacity"
          values=  "0; 0  ; 1    ; 1    ; 0     ; 0"
          keyTimes="0; 0.1; 0.125; 0.275; 0.2875; 1"
          dur="20s"
          repeatCount="indefinite"/>
      </g>
    </g>

    <!-- step 2: sync settings-->
    <g>
      <!-- iungo sync response -->
      <g transform="translate(65, -12)">
        <g>
          <path d="m3 -3 a8 8 0 0 1 8 -8 h30 a8 8 0 0 1 8 8 v4 a8 8 0 0 1 -8 8 h-20 l-5 5 l-5 -5 h0 a8 8 0 0 1 -8 -8z" fill="white" stroke="#7E7F9A" />

          <use x="8" y="-5" fill="#ffbb00" xlink:href="#lightning">
            <animate
              attributeName="opacity"
              values=  "0; 0  ; 1     ; 1"
              keyTimes="0; 0.8; 0.8125; 1"
              dur="20s"
              repeatCount="indefinite"/>
          </use>
          <use x="18" y="-5" stroke="#bb00ff" xlink:href="#script">
            <animate
              attributeName="opacity"
              values=  "0; 0     ; 1    ; 1"
              keyTimes="0; 0.8125; 0.825; 1"
              dur="20s"
              repeatCount="indefinite"/>
          </use>
          <use x="33" y="-6" fill="#00bbff" xlink:href="#landmark">
            <animate
              attributeName="opacity"
              values=  "0; 0    ; 1     ; 1"
              keyTimes="0; 0.825; 0.8375; 1"
              dur="20s"
              repeatCount="indefinite"/>
          </use>

          <animateTransform
            attributeType="XML"
            attributeName="transform"
            type="translate"
            values  ="108.45,0; 108.45,0; 0,0  ; 0,0"
            keyTimes="0       ; 0.875   ; 0.925; 1"
            dur="20s"
            repeatCount="indefinite"/>
          <animate
            attributeName="opacity"
            values=  "0; 0    ; 1  ; 1    ; 0   ; 0"
            keyTimes="0; 0.775; 0.8; 0.925; 0.95; 1"
            dur="20s"
            repeatCount="indefinite"/>
        </g>
      </g>

      <!-- flying script/event/route -->
      <g transform="translate(246,40)">
        <path d="m32 20 h5 a6 6 0 0 0 6 -6 v-54 a6 6 0 0 0 -6 -6 h-61" fill="none" stroke="#DCDFE5" stroke-width="3" opacity="0.3" />
        <path d="m32 20 h5 a6 6 0 0 0 6 -6 v-54 a6 6 0 0 0 -6 -6 h-61" fill="none" stroke="#DCDFE5" stroke-width="3" stroke-dasharray="2 3" opacity="0.8">
          <animate
            attributeName="stroke-dashoffset"
            values  ="0; 0    ; -35.4624; -35.4624"
            keyTimes="0; 0.775; 0.85    ; 1"
            dur="20s"
            repeatCount="indefinite" />
        </path>
        <path id="_flying-route" d="m43 14 v-54 a6 6 0 0 0 -6 -6 h-55" fill="none" stroke="none" />
        <use x="-3" y="-5" fill="#ffbb00" xlink:href="#lightning">
          <animate
            attributeName="opacity"
            values=  "0; 0     ; 1     ; 1     ; 0    ; 0"
            keyTimes="0; 0.7625; 0.7875; 0.8125; 0.825; 1"
            dur="20s"
            repeatCount="indefinite"/>
          <animateMotion
            keyPoints="0; 0     ; 0.4   ; 1     ; 1"
            keyTimes ="0; 0.7625; 0.7875; 0.8125; 1"
            dur="20s"
            repeatCount="indefinite">
            <mpath xlink:href="#_flying-route" />
          </animateMotion>
        </use>
        <use x="-5" y="-5" stroke="#bb00ff" xlink:href="#script">
          <animate
            attributeName="opacity"
            values=  "0; 0    ; 1  ; 1    ; 0     ; 0"
            keyTimes="0; 0.775; 0.8; 0.825; 0.8375; 1"
            dur="20s"
            repeatCount="indefinite"/>
          <animateMotion
            keyPoints="0; 0    ; 0.4; 1    ; 1"
            keyTimes ="0; 0.775; 0.8; 0.825; 1"
            dur="20s"
            repeatCount="indefinite">
            <mpath xlink:href="#_flying-route" />
          </animateMotion>
        </use>
        <use x="-3" y="-6" fill="#00bbff" xlink:href="#landmark">
          <animate
            attributeName="opacity"
            values=  "0; 0     ; 1     ; 1     ; 0   ; 0"
            keyTimes="0; 0.7875; 0.8125; 0.8375; 0.85; 1"
            dur="20s"
            repeatCount="indefinite"/>
          <animateMotion
            keyPoints="0; 0     ; 0.4   ; 1     ; 1"
            keyTimes ="0; 0.7875; 0.8125; 0.8375; 1"
            dur="20s"
            repeatCount="indefinite">
            <mpath xlink:href="#_flying-route" />
          </animateMotion>
        </use>

        <animate
          attributeName="visibility"
          values=  "hidden; visible; hidden; hidden"
          keyTimes="0     ; 0.775  ; 0.85 ; 1"
          dur="20s"
          repeatCount="indefinite"/>
      </g>

      <use xlink:href="#tasklist" fill="#2fb5f3" stroke="#2fb5f3" transform="scale(0.7) translate(100,5)">
        <animate attributeType="CSS"
          attributeName="opacity"
          values=  "0; 0  ; 1    ; 1    ; 0     ; 0"
          keyTimes="0; 0.5; 0.525; 0.775; 0.7875; 1"
          dur="20s"
          repeatCount="indefinite"/>
        <animate attributeName="x"
          values  ="0; 0    ; 196  ; 196"
          keyTimes="0; 0.525; 0.625; 1"
          dur="20s"
          repeatCount="indefinite" />
        <animate attributeName="fill"
          values  ="#2fb5f3; #2fb5f3; #f1c121; #f1c121"
          keyTimes="      0; 0.6375 ; 0.65   ; 1"
          dur="20s"
          repeatCount="indefinite" />
        <animate attributeName="stroke"
          values  ="#2fb5f3; #2fb5f3; #f1c121; #f1c121"
          keyTimes="      0; 0.6375 ; 0.65   ; 1"
          dur="20s"
          repeatCount="indefinite" />
      </use>

      <use xlink:href="#document" transform="scale(0.4) translate(174.45,12)" fill="#a87cc9" stroke="white" x="281">
        <animate attributeType="CSS"
          attributeName="opacity"
          values=  "0; 0     ; 1   ; 1     ; 0    ; 0"
          keyTimes="0; 0.8375; 0.85; 0.9625; 0.975; 1"
          dur="20s"
          repeatCount="indefinite"/>
        <animate attributeName="x"
          values  ="281; 281  ; 10   ; 10"
          keyTimes="0  ; 0.875; 0.925; 1"
          dur="20s"
          repeatCount="indefinite" />
      </use>

      <line x1="201" x2="65" y1="26" y2="26" stroke="#7E7F9A" stroke-width="2" stroke-dasharray="8" stroke-dashoffset="0">
        <animate attributeType="CSS"
          attributeName="opacity"
          values=  "0; 1  ; 1   ; 0"
          keyTimes="0; 0.4; 0.95; 1"
          dur="20s"
          repeatCount="indefinite"/>
        <animate attributeName="x1"
          values  ="65; 65 ; 201; 201"
          keyTimes="0 ; 0.4; 0.475; 1"
          dur="20s"
          repeatCount="indefinite" />
        <animate attributeName="stroke-dashoffset"
          values  ="0; 0    ; 272 ; 340  ; 204  ; 204"
          keyTimes="0; 0.475; 0.65; 0.875; 0.925; 1"
          dur="20s"
          repeatCount="indefinite" />
      </line>

      <!-- iungo sync request -->
      <g transform="translate(180, -45)" visibility="hidden">
        <path d="m0 0 v-10 a8 8 0 0 1 8 -8 h15 a8 8 0 0 1 8 8 a2 2 0 0 0 2 2 h85 a8 8 0 0 1 8 8 v20 a8 8 0 0 1 -8 8 h-74 l-8 8 l-8 -8 h-20 a8 8 0 0 1 -8 -8z" fill="white" stroke="#7E7F9A" />
        <path d="m0 -8 v-2 a8 8 0 0 1 8 -8 h15 a8 8 0 0 1 8 8 a2 2 0 0 0 2 2 z" fill="#7E7F9A" />
        <text x="3" y="-11" font-size="8" class="font-mono" font-weight="" fill="white">
          /sync
        </text>

        <text x="5" y="2" font-size="9" class="font-mono reserve-ws" fill="#7E7F9A">service type  : valkey</text>
        <text x="5" y="12" font-size="9" class="font-mono reserve-ws" fill="#7E7F9A">namespace     : bar</text>
        <text x="5" y="22" font-size="9" class="font-mono reserve-ws" fill="#7E7F9A">last update at: 0</text>

        <animate
          attributeName="visibility"
          values=  "hidden; visible; hidden; hidden"
          keyTimes="0     ; 0.625  ; 0.8125; 1"
          dur="20s"
          repeatCount="indefinite"/>
        <animate
          attributeName="opacity"
          values=  "0; 0    ; 1   ; 1    ; 0     ; 0"
          keyTimes="0; 0.625; 0.65; 0.775; 0.8125; 1"
          dur="20s"
          repeatCount="indefinite"/>
      </g>

      <!-- iungo namespace box -->
      <g transform="translate(180,70)" visibility="hidden">
        <pattern id="namespace-box-sync" viewBox="0,0,60,40" width="50%" height="100%" x="40%">
          <rect x="2" y="2" width="56" height="36" rx="5" fill="#DCDFE5" />
          <animate attributeName="x"
            values  ="40%; 40% ; -325% ; -360%; -360%"
            keyTimes="0  ; 0.65;  0.675;  0.7 ; 1"
            dur="20s"
            repeatCount="indefinite" />
        </pattern>

        <path d="m8 5 a8 8 0 0 0 -8 8 v40 a8 8 0 0 0 8 8 h114 a8 8 0 0 0 8 -8 v-40 a8 8 0 0 0 -8 -8 h-54" fill="none" stroke="#97A7B3" />
        <text font-size="9" x="12" y="1" font-weight="600" alignment-baseline="hanging" fill="#7E7F9A">
          namespace
        </text>
        <rect x="5" y="15" width="120" height="40" fill="url(#namespace-box-sync)"></rect>

        <animate
          attributeName="visibility"
          values=  "hidden; visible; hidden; hidden"
          keyTimes="0     ; 0.65   ; 0.7875; 1"
          dur="20s"
          repeatCount="indefinite"/>
        <animate
          attributeName="opacity"
          values=  "0; 0   ; 1    ; 1     ; 0     ; 0"
          keyTimes="0; 0.65; 0.675; 0.7625; 0.7875; 1"
          dur="20s"
          repeatCount="indefinite"/>
      </g>

      <!-- valkey settings update -->
      <g transform="translate(8.5,65)">
        <rect x="0" y="0" width="50" height="40" rx="8" fill="none" stroke="#b0b1bf" />
        <line x1="0" x2="50" y1="10" y2="10" stroke="#b0b1bf" />
        <use xlink:href="#lightning" x="6" y="14" fill="#ffbb00" transform="scale(1.2)">
          <animate attributeType="XML"
            attributeName="fill"
            values=  "#DCDFE5; #DCDFE5; #ffbb00; #ffbb00"
            keyTimes="0      ; 0.925  ; 0.9375 ; 1"
            dur="20s"
            repeatCount="indefinite"/>
        </use>
        <use xlink:href="#script" x="14" y="14" stroke="#bb00ff" transform="scale(1.2)">
          <animate attributeType="XML"
            attributeName="stroke"
            values=  "#DCDFE5; #DCDFE5; #bb00ff; #bb00ff"
            keyTimes="0      ; 0.9375 ; 0.95   ; 1"
            dur="20s"
            repeatCount="indefinite"/>
        </use>
        <use xlink:href="#landmark" x="31.5" y="15.2" fill="#00bbff" transform="scale(1.05)">
          <animate attributeType="XML"
            attributeName="fill"
            values=  "#DCDFE5; #DCDFE5; #00bbff; #00bbff"
            keyTimes="0      ; 0.95   ; 0.9625 ; 1"
            dur="20s"
            repeatCount="indefinite"/>
        </use>

        <g>
          <circle cx="45" cy="36" r="9" fill="#90ca6e" />
          <g>
            <use xlink:href="#sync_symbol" fill="white" stroke="white" transform="scale(0.3) translate(118,100)">
              <animate
                attributeName="visibility"
                values  ="visible; hidden; hidden"
                keyTimes="0      ; 0.9625; 1"
                dur="20s"
                repeatCount="indefinite" />
            </use>

            <animateTransform  attributeType="XML"
              attributeName="transform"
              type="rotate"
              values  ="0; 0 45,36; 360 45,36"
              keyTimes="0; 0.875  ; 1"
              dur="20s"
              repeatCount="indefinite"/>
          </g>
          <g transform="translate(21.5,4.5)">
            <path d="M20 32 L23 35 L28 30" fill="none" stroke="white" stroke-width="3.5" stroke-linecap="round" stroke-linejoin="round" stroke-dasharray="11.5" stroke-dashoffset="11.5" visibility="hidden">
              <animate
                attributeName="visibility"
                values  ="hidden; visible; visible"
                keyTimes="0     ; 0.9625 ; 1"
                dur="20s"
                repeatCount="indefinite" />
              <animate
                attributeName="stroke-dashoffset"
                values  ="11.5; 11.5  ; 0    ; 0"
                keyTimes="0   ; 0.9625; 0.975; 1"
                dur="20s"
                repeatCount="indefinite" />
            </path>
          </g>
        </g>

        <!-- progress bar -->
        <g transform="translate(5, 50)">
          <path d="M0 0 H40" stroke="#DCDFE5" stroke-width="6" stroke-linecap="round" stroke-linejoin="round" />
          <path d="M0 0 H40" stroke="#90ca6e" stroke-width="6" stroke-dasharray="0 40" stroke-linecap="round" stroke-linejoin="round" visibility="hidden">
            <animate
              attributeName="stroke-dasharray"
              values  ="0 40; 0 40 ; 40 40 ; 40 40"
              keyTimes="0   ; 0.925; 0.9625; 1"
              dur="20s"
              repeatCount="indefinite" />
            <animate
              attributeName="visibility"
              values  ="hidden; visible; hidden; hidden"
              keyTimes="0     ; 0.925  ; 0.9625; 1"
              dur="20s"
              repeatCount="indefinite" />
          </path>

          <animate
            attributeName="visibility"
            values  ="hidden; visible; hidden; hidden"
            keyTimes="0     ; 0.925  ; 0.9625; 1"
            dur="20s"
            repeatCount="indefinite" />
        </g>

        <animate attributeType="CSS"
          attributeName="opacity"
          values=  "0; 0   ; 1    ; 1    ; 0     ; 0"
          keyTimes="0; 0.85; 0.875; 0.975; 0.9875; 1"
          dur="20s"
          repeatCount="indefinite"/>
      </g>
    </g>
  </g>



  <g transform="translate(100,70)">
    <rect fill="#cae9fa" stroke="none" x="1" y="-29" width="65" height="85" rx="10" stroke-width="1px" />
    <path d="m7 -29 a6 6 0 0 0 -6 6 v25 h65 v-25 a6 6 0 0 0 -6 -6 z" fill="#a9c9d6" />
    <pattern id="valkey-command" viewBox="0,0,19.25,31" width="30%" height="100%">
      <path d="m13.25 0 h6 l-13.25 31 h-6 z" fill="#b3eeed" opacity="0.4" />
      <animate attributeName="x"
        from="0%"
        to="-900%"
        dur="20s"
        repeatCount="indefinite" />
    </pattern>
    <path d="m7 -29 a6 6 0 0 0 -6 6 v25 h65 v-25 a6 6 0 0 0 -6 -6 z" fill="url(#valkey-command)" />

    <!-- valkey sync -->
    <g transform="translate(33.5, -30)" visibility="hidden">
      <g transform="translate(-19.5,5) scale(0.6)">
        <use xlink:href="#sync_symbol" fill="white" stroke="white">
          <animateTransform  attributeType="XML"
            attributeName="transform"
            type="rotate"
            values  ="0; 0 32.5,20; 1440 32.5,20"
            keyTimes="0; 0.5      ; 1"
            dur="20s"
            repeatCount="indefinite"/>
        </use>

        <animate attributeType="CSS"
          attributeName="opacity"
          values=  "0; 0  ; 1    ; 1   ; 0    ; 0"
          keyTimes="0; 0.5; 0.525; 0.95; 0.975; 1"
          dur="20s"
          repeatCount="indefinite"/>
      </g>

      <animate
        attributeName="visibility"
        values=  "hidden; visible; hidden; hidden"
        keyTimes="0     ; 0.5    ; 0.975 ; 1"
        dur="20s"
        repeatCount="indefinite"/>
    </g>

    <use xlink:href="#valkey_logo" transform="scale(0.17) translate(-68,52)" />
  </g>

  <g transform="translate(300,70)">
    <rect fill="rgba(220,222,193,0.55)" x="2" y="1" width="65" height="55" rx="8" stroke="#97A7B3" stroke-width="2" />

    <rect fill="none" x="2" y="1" width="65" height="55" rx="8" stroke="#DCDFE5" stroke-width="2" stroke-dasharray="4 3.5" visibility="visible">
      <animate attributeName="visibility"
        values  ="visible; hidden; hidden"
        keyTimes="      0;  0.475; 1"
        dur="20s"
        repeatCount="indefinite" />
      <animate attributeName="stroke-dashoffset"
        values  ="0; 0    ; -28.28; -339.398; -339.398; -226.265; -226.265"
        keyTimes="0; 0.075; 0.25  ; 0.375   ; 0.3875  ; 0.45    ; 1"
        dur="20s"
        repeatCount="indefinite" />
    </rect>
    <rect fill="none" x="2" y="1" width="65" height="55" rx="8" stroke="#DCDFE5" stroke-width="2" stroke-dasharray="4 3.5" visibility="hidden">
      <animate attributeName="visibility"
        values  ="hidden; visible; hidden; hidden"
        keyTimes="     0; 0.5    ; 0.95  ; 1"
        dur="20s"
        repeatCount="indefinite" />
      <animate attributeName="stroke-dashoffset"
        values  ="0; 0    ; -28.28; -339.398; -339.398; -226.265; -226.265"
        keyTimes="0; 0.475; 0.65  ; 0.775   ; 0.8875  ; 0.95    ; 1"
        dur="20s"
        repeatCount="indefinite" />
    </rect>

    <text x="32.5" y="27" font-size="18" font-weight="400" alignment-baseline="central" text-anchor="middle" fill="#7E7F9A">
      iungo
    </text>
  </g>


  <defs>
    <g id="_sync-valkey-adapter-settings">
      <path d="m0 4 a4 4 0 0 1 4 -4 h20 l10 10 v28 a4 4 0 0 1 -4 4 h-26 a4 4 0 0 1 -4 -4 z" fill="#DCDFE5" stroke="none" stroke-width="1" stroke-linecap="round" stroke-linejoin="round" />
      <path d="m24 0 v6 a4 4 0 0 0 4 4 h6" fill="#7E7F9A" />

      <text x="3" y="3" font-size="9" class="font-mono" fill="#7E7F9A" alignment-baseline="hanging">
        bar
      </text>

      <path d="m3 16 h10" stroke="#97A7B3" stroke-width="2" />
      <path d="m3 20 h10" stroke="#97A7B3" stroke-width="2" />
      <path d="m3 25 h22" stroke="#97A7B3" stroke-width="2" />
      <path d="m3 29 h22" stroke="#97A7B3" stroke-width="2" />
      <path d="m3 33 h22" stroke="#97A7B3" stroke-width="2" />
    </g>
  </defs>

  <!-- sync settings document -->
  <g transform="translate(346,110)">
    <use xlink:href="#_sync-valkey-adapter-settings" />
    <animate
      attributeName="opacity"
      values=  "1; 1     ; 1   ; 0    ; 0"
      keyTimes="0; 0.7625; 0.85; 0.875; 1"
      dur="20s"
      repeatCount="indefinite"/>
    <animate
      attributeName="visibility"
      values=  "hidden; visible; hidden; hidden"
      keyTimes="0     ; 0.7625 ; 0.875 ; 1"
      dur="20s"
      repeatCount="indefinite"/>
  </g>

  <!-- bar namespace -->
  <g transform="translate(315,155)">
    <!-- notify sync -->
    <g>
      <rect x="20" y="2" width="56" height="36" rx="5" fill="#F3DE8A" />
      <rect x="22" y="7" width="52" height="14" rx="2" fill="white" />

      <!-- thinking script/event/route -->
      <g transform="translate(37,-45)">
        <g>
          <path id="_thinking-route" d="M75 -5 C60 -5, 25 0, 10 50" fill="none" stroke="#DCDFE5" visibility="hidden" />
          <use x="-3" y="-5" transform="scale(2)" fill="#ffbb00" xlink:href="#lightning">
            <animate
              attributeName="opacity"
              values=  "0; 0    ; 1  ; 1     ; 0    ; 0"
              keyTimes="0; 0.175; 0.2; 0.2125; 0.225; 1"
              dur="20s"
              repeatCount="indefinite"/>
            <animateMotion
              keyPoints="0; 0    ; 0.5; 1     ; 1"
              keyTimes ="0; 0.175; 0.2; 0.2125; 1"
              dur="20s"
              repeatCount="indefinite">
              <mpath xlink:href="#_thinking-route" />
            </animateMotion>
          </use>
          <use x="-6" y="-5" transform="scale(2)" stroke="#bb00ff" xlink:href="#script">
            <animate
              attributeName="opacity"
              values=  "0; 0     ; 1     ; 1    ; 0     ; 0"
              keyTimes="0; 0.1875; 0.2125; 0.225; 0.2375; 1"
              dur="20s"
              repeatCount="indefinite"/>
            <animateMotion
              keyPoints="0; 0     ; 0.5   ; 1    ; 1"
              keyTimes ="0; 0.1875; 0.2125; 0.225; 1"
              dur="20s"
              repeatCount="indefinite">
              <mpath xlink:href="#_thinking-route" />
            </animateMotion>
          </use>
          <use x="-4" y="-5" transform="scale(2)" fill="#00bbff" xlink:href="#landmark">
            <animate
              attributeName="opacity"
              values=  "0; 0  ; 1    ; 1     ; 0   ; 0"
              keyTimes="0; 0.2; 0.225; 0.2375; 0.25; 1"
              dur="20s"
              repeatCount="indefinite"/>
            <animateMotion
              keyPoints="0; 0  ; 0.5  ; 1     ; 1"
              keyTimes ="0; 0.2; 0.225; 0.2375; 1"
              dur="20s"
              repeatCount="indefinite">
              <mpath xlink:href="#_thinking-route" />
            </animateMotion>
          </use>
        </g>
      </g>

      <path d="m20 10 h56 v23 a5 5 0 0 1 -5 5 h-46 a5 5 0 0 1 -5 -5 z" fill="#ffcc00" visibility="hidden">
        <animate
          attributeName="visibility"
          values=  "hidden; visible; visible"
          keyTimes="0     ; 0.25   ; 1"
          dur="20s"
          repeatCount="indefinite"/>
      </path>

      <path d="m18 15 h60 l-1.7 18 a5 5 0 0 1 -4.3 5 h-48 a5 5 0 0 1 -4.3 -5 z" fill="#ffcc00" visibility="visible">
        <animate
          attributeName="visibility"
          values=  "visible; hidden; hidden"
          keyTimes="0      ; 0.25  ; 1"
          dur="20s"
          repeatCount="indefinite"/>
      </path>

      <text x="48" y="32" font-size="14" font-weight="600" fill="white" class="font-mono" alignment-baseline="center" text-anchor="middle">
        bar
      </text>

      <animate
        attributeName="opacity"
        values=  "0; 0    ; 1     ; 1    ; 0     ; 0"
        keyTimes="0; 0.175; 0.1875; 0.275; 0.2875; 1"
        dur="20s"
        repeatCount="indefinite"/>
    </g>

    <!-- sync -->
    <g>
      <rect x="20" y="2" width="56" height="36" rx="5" fill="#F3DE8A" />
      <rect x="22" y="7" width="52" height="14" rx="2" fill="white" />

      <g transform="translate(31,-45)">
        <g>
          <use xlink:href="#_sync-valkey-adapter-settings" />
          <animateTransform
            attributeType="XML"
            attributeName="transform"
            type="translate"
            values  ="9,49; 9,49; 0,0   ; 0,0"
            keyTimes="0   ; 0.75; 0.7625; 1"
            dur="20s"
            repeatCount="indefinite"/>
          <animateTransform
            attributeType="XML"
            attributeName="transform"
            type="scale"
            values  ="0.5; 0.5 ; 1     ; 1"
            keyTimes="0  ; 0.75; 0.7625; 1"
            dur="20s"
            additive="sum"
            repeatCount="indefinite"/>
        </g>
      </g>

      <path d="m20 10 h56 v23 a5 5 0 0 1 -5 5 h-46 a5 5 0 0 1 -5 -5 z" fill="#ffcc00" visibility="hidden">
        <animate
          attributeName="visibility"
          values=  "hidden; visible; hidden; hidden"
          keyTimes="0     ; 0.7    ; 0.725 ; 1"
          dur="20s"
          repeatCount="indefinite"/>
      </path>

      <path d="m18 15 h60 l-1.7 18 a5 5 0 0 1 -4.3 5 h-48 a5 5 0 0 1 -4.3 -5 z" fill="#ffcc00" visibility="hidden">
        <animate
          attributeName="visibility"
          values=  "hidden; visible; visible"
          keyTimes="0     ; 0.725  ; 1"
          dur="20s"
          repeatCount="indefinite"/>
      </path>

      <text x="48" y="32" font-size="14" font-weight="600" fill="white" class="font-mono" alignment-baseline="center" text-anchor="middle">
        bar
      </text>

      <animate
        attributeName="visibility"
        values=  "hidden; visible; hidden; hidden"
        keyTimes="0     ; 0.7    ; 0.7875; 1"
        dur="20s"
        repeatCount="indefinite"/>
      <animate
        attributeName="opacity"
        values=  "0; 0  ; 1    ; 1     ; 0     ; 0"
        keyTimes="0; 0.7; 0.725; 0.7625; 0.7875; 1"
        dur="20s"
        repeatCount="indefinite"/>
    </g>
  </g>














  <defs>
    <path id="gear" d="m14,9.3l0,-2.57l-1.575,-0.264c-0.117,-0.44 -0.292,-0.848 -0.496,-1.2l0.93,-1.285l-1.81,-1.84l-1.31,0.908c-0.38,-0.205 -0.79,-0.38 -1.196,-0.497l-0.259,-1.552l-2.568,0l-0.263,1.578c-0.437,0.117 -0.816,0.293 -1.196,0.497l-1.282,-0.905l-1.838,1.81l0.934,1.287c-0.2,0.38 -0.376,0.79 -0.493,1.228l-1.578,0.235l0,2.57l1.575,0.264c0.117,0.438 0.292,0.818 0.496,1.198l-0.93,1.315l1.809,1.813l1.312,-0.938c0.38,0.205 0.787,0.38 1.224,0.497l0.26,1.551l2.566,0l0.263,-1.578c0.408,-0.117 0.817,-0.293 1.196,-0.497l1.315,0.935l1.81,-1.812l-0.935,-1.315c0.203,-0.38 0.38,-0.76 0.495,-1.2l1.544,-0.23l0,-0.003zm-7,1.407c-1.488,0 -2.683,-1.2 -2.683,-2.69s1.225,-2.69 2.683,-2.69c1.458,0 2.683,1.198 2.683,2.69c0,1.49 -1.195,2.688 -2.683,2.688l0,0.002z" />

    <g id="start_symbol">
      <path d="m20 12.6795 a20 20 0 1 0 20 0" fill="none" stroke-width="5.5" stroke-linecap="round" />
      <path d="m30 30 v-20" fill="none" stroke-width="5.5" stroke-linecap="round" />
    </g>

    <g id="sync_symbol">
      <path d="m20.2433 9.7154 a16 16 0 0 1 28.2567 10.2846" fill="none" stroke="unset" stroke-width="6" />
      <path d="m40 20 h17 l-8.5 8.5 z" fill="unset" stroke="none" />
      <path d="m44.7567 30.2846 a16 16 0 0 1 -28.2567 -10.2846" fill="none" stroke="unset" stroke-width="6" />
      <path d="m25 20 h-17 l8.5 -8.5 z" fill="unset" stroke="none" />
      <!-- <circle cx="32.5" cy="20" r="16" fill="none" stroke="red" /> -->
    </g>


    <g id="thinking_round">
      <path d="M20 40 C5 34, 10 5, 36 12 C52 1, 68 24, 58 35 C64 46, 55 55, 46 50 C37 58, 20 56, 20 40 z" fill="unset" stroke="none"/>
    </g>


    <svg version="1.1" id="thinking_man" xmlns="http://www.w3.org/2000/svg" xmlns:xlink="http://www.w3.org/1999/xlink" width="800px" height="800px" viewBox="0 0 200 256" enable-background="new 0 0 200 256" xml:space="preserve" data-iconid="308121" data-svgname="Thinking consider ponder think">
      <path d="M92.068,94.527c-25.511,0-46.263-20.751-46.263-46.261S66.559,2,92.068,2s46.263,20.754,46.263,46.265
        S117.579,94.527,92.068,94.527z M78.504,233.188c0.385-14.984,13.026-26.702,28.04-26.702h44.004v-11.179
        c0-2.384,1.933-4.317,4.317-4.317s4.317,1.933,4.317,4.317v19.856h-52.638c-10.25,0-18.875,7.919-19.373,18.434
        c-0.53,11.182,9.136,20.356,20.33,20.356h76.82c7.417,0,13.429-6.012,13.429-13.429v-77.04
        c-0.862-30.602-26.076-55.168-56.031-55.168h-40.556c3.616,7.525,3.83,16.563-0.138,24.587L46.802,247.064
        c-1.286,2.595-2.935,4.915-4.856,6.936h44.765C86.545,253.833,78.149,247.015,78.504,233.188z M13.047,251.976
        c2.762,1.381,5.694,2.022,8.584,2.022c7.147,0,14.009-3.958,17.397-10.791l54.197-114.119c4.556-9.183,1.282-20.43-7.915-25.54
        c-2.848-1.58-5.923-2.306-8.969-2.306c-7.445,0-14.778,4.37-18.294,11.503l-19.104,38.482c-0.604,1.718-2.224,2.958-4.149,2.958
        c-2.438,0-4.415-1.977-4.415-4.415c0-0.993,0.34-1.9,0.894-2.638l18.985-38.245c0.017-0.035,0.038-0.068,0.056-0.103
        c-27.211,3.457-48.066,26.51-48.066,54.701c0,0-0.001,49.552-0.001,68.777C2.248,239.797,5.466,248.225,13.047,251.976z" fill="unset"></path>
    </svg>

    <!-- âœ‰ï¸ -->
    <g id="envelope">
      <rect width="40" height="26" rx="6"/>
      <path d="m2 3 l15 13 a6.062 6.062 0 0 0 6 0 l15 -13" fill="none" stroke="white" stroke-width="2" stroke-linecap="round" stroke-linejoin="round" />
      <path d="m2 23 l9 -7.8"  fill="none" stroke="white" stroke-width="2" stroke-linecap="round" stroke-linejoin="round" />
      <path d="m38 23 l-9 -7.8"  fill="none" stroke="white" stroke-width="2" stroke-linecap="round" stroke-linejoin="round" />
    </g>

    <g id="tasklist">
      <path d="m6.5 3 h-2.5 a4 4 0 0 0 -4 4 v14 a4 4 0 0 0 4 4 h12 a4 4 0 0 0 4 -4 v-14 a4 4 0 0 0 -4 -4 h-2.5" fill="none" />
      <path d="m7.5 4.5 v-2 a1.5 1.5 0 0 1 1.5 -1.5 h2 a1.5 1.5 0 0 1 1.5 1.5 v2 h4 a1 1 0 0 1 1 1 v1 h-15 v-1 a1 1 0 0 1 1 -1 z" stroke="none" />
      <circle cx="10" cy="3" r="0.8" fill="white" stroke="none" />
      <path d="m2.5 10 h6" />
      <path d="m2.5 12 h6" />
      <path d="m2.5 15 h12" />
      <path d="m2.5 17 h12" />
      <path d="m2.5 19 h12" />
    </g>

    <svg id="valkey_logo" xmlns="http://www.w3.org/2000/svg" xml:space="preserve" viewBox="0 0 512 512"><path d="m126.1 431.2-91.7-57.4V128.6L258.7 0l218.9 128.8v258L255.2 512 178 463.7V346.2L136.2 320V187l121.2-69.5 118.4 69.7v139.4L282 379.4v-56.1c28.1-10.8 48.3-38.6 48.3-71.5 0-42.3-33.5-76.3-74.3-76.3s-74.3 34-74.3 76.3c0 32.8 20.2 60.6 48.3 71.5v106.3l26.8 16.8 164.4-92.6V161.1L258.3 65.3l-167.5 96v181.3l35.3 22.1zM256 216.7c18.5 0 33.1 15.9 33.1 35.1 0 19.1-14.6 35.1-33.1 35.1s-33.1-15.9-33.1-35.1 14.6-35.1 33.1-35.1" style="fill-rule:evenodd;clip-rule:evenodd;fill:#123678"/></svg>

    <!--âš¡-->
    <path id="lightning" d="m6 0 l-6 6 l3 -0.5 l-1 4.5 l6 -6 l-3 0.5 z" />

    <!-- ðŸ—ï¸ -->
    <g id="key">
      <circle cx="2" cy="2" r="2" fill="none" />
      <path d="m2 4 v5 h1.5" fill="none" />
      <path d="m2 7 h1.5" fill="none" />
    </g>

    <!-- ðŸ“„ -->
    <g id="document">
      <path d="m0 4 a4 4 0 0 1 4 -4 h20 l10 10 v28 a4 4 0 0 1 -4 4 h-26 a4 4 0 0 1 -4 -4 z" stroke="none" stroke-width="1" stroke-linecap="round" stroke-linejoin="round" />
      <path d="m24 0 v6 a4 4 0 0 0 4 4 h6" />

      <path d="m3 16 h10" stroke-width="2" opacity="0.7" />
      <path d="m3 20 h10" stroke-width="2" opacity="0.7" />
      <path d="m3 25 h22" stroke-width="2" opacity="0.7" />
      <path d="m3 29 h22" stroke-width="2" opacity="0.7" />
      <path d="m3 33 h22" stroke-width="2" opacity="0.7" />
    </g>

    <!-- landmark -->
    <g id="landmark">
      <path d="m2 7 a3.75 3.75 0 1 1 6 0 l-3 4 z" stroke="none"/>
      <circle cx="5" cy="4.75" r="1.5" fill="white" stroke="none" stroke-width="0.5" />
    </g>

    <!-- script -->
    <g id="script">
      <path d="m4 2.4 l-2.1 2.1 l2.1 2.1" fill="none" stroke-width="1.4" stroke-linecap="round" stroke-linejoin="round" />
      <path d="m8 2 l-2 5" fill="none" stroke-width="1.1" stroke-linecap="round" />
      <path d="m10 2.4 l2.1 2.1 l-2.1 2.1" fill="none" stroke-width="1.4" stroke-linecap="round" stroke-linejoin="round" />
    </g>

  </defs>
</svg>