<svg xmlns="http://www.w3.org/2000/svg" xmlns:xlink="http://www.w3.org/1999/xlink" contentStyleType="text/css" height="375px" preserveAspectRatio="none" style="width:560px;height:375px;background:#FFFFFF;" version="1.1" viewBox="0 0 560 375" width="560px" zoomAndPan="magnify"><defs/><g><!--cluster IungoAdapter--><g id="cluster_IungoAdapter"><rect fill="none" height="362" rx="2.5" ry="2.5" style="stroke:#181818;stroke-width:1.0;" width="445" x="109.9136" y="7"/><rect fill="none" height="10" style="stroke:#181818;stroke-width:1.0;" width="15" x="534.9136" y="12"/><rect fill="none" height="2" style="stroke:#181818;stroke-width:1.0;" width="4" x="532.9136" y="14"/><rect fill="none" height="2" style="stroke:#181818;stroke-width:1.0;" width="4" x="532.9136" y="18"/><text fill="#000000" font-family="sans-serif" font-size="14" font-weight="bold" lengthAdjust="spacing" textLength="143.1445" x="260.8413" y="36.8643">Valkey iungo Adapter</text></g><!--entity EventHandler--><g id="elem_EventHandler"><rect fill="#F1F1F1" height="69.8809" rx="2.5" ry="2.5" style="stroke:#181818;stroke-width:0.5;" width="174.627" x="345.4136" y="53"/><rect fill="#F1F1F1" height="10" style="stroke:#181818;stroke-width:0.5;" width="15" x="500.0405" y="58"/><rect fill="#F1F1F1" height="2" style="stroke:#181818;stroke-width:0.5;" width="4" x="498.0405" y="60"/><rect fill="#F1F1F1" height="2" style="stroke:#181818;stroke-width:0.5;" width="4" x="498.0405" y="64"/><text fill="#000000" font-family="sans-serif" font-size="14" lengthAdjust="spacing" textLength="134.627" x="360.4136" y="89.8643">Keyspace Notification</text><text fill="#000000" font-family="sans-serif" font-size="14" lengthAdjust="spacing" textLength="88.7168" x="360.4136" y="109.8047">Event Handler</text></g><!--entity TriggerRouter--><g id="elem_TriggerRouter"><rect fill="#F1F1F1" height="49.9404" rx="2.5" ry="2.5" style="stroke:#181818;stroke-width:0.5;" width="195.627" x="334.9136" y="184"/><rect fill="#F1F1F1" height="10" style="stroke:#181818;stroke-width:0.5;" width="15" x="510.5405" y="189"/><rect fill="#F1F1F1" height="2" style="stroke:#181818;stroke-width:0.5;" width="4" x="508.5405" y="191"/><rect fill="#F1F1F1" height="2" style="stroke:#181818;stroke-width:0.5;" width="4" x="508.5405" y="195"/><text fill="#000000" font-family="sans-serif" font-size="14" lengthAdjust="spacing" textLength="155.627" x="349.9136" y="220.8643">Keyspace Trigger Router</text></g><!--entity CommandHandler--><g id="elem_CommandHandler"><rect fill="#F1F1F1" height="49.9404" rx="2.5" ry="2.5" style="stroke:#181818;stroke-width:0.5;" width="157.4961" x="142.4136" y="184"/><rect fill="#F1F1F1" height="10" style="stroke:#181818;stroke-width:0.5;" width="15" x="279.9097" y="189"/><rect fill="#F1F1F1" height="2" style="stroke:#181818;stroke-width:0.5;" width="4" x="277.9097" y="191"/><rect fill="#F1F1F1" height="2" style="stroke:#181818;stroke-width:0.5;" width="4" x="277.9097" y="195"/><text fill="#000000" font-family="sans-serif" font-size="14" lengthAdjust="spacing" textLength="117.4961" x="157.4136" y="220.8643">Command Handler</text></g><!--entity IungoAPI--><g id="elem_IungoAPI"><rect fill="#F1F1F1" height="49.9404" rx="2.5" ry="2.5" style="stroke:#181818;stroke-width:0.5;" width="153.6338" x="143.9136" y="295"/><rect fill="#F1F1F1" height="10" style="stroke:#181818;stroke-width:0.5;" width="15" x="277.5474" y="300"/><rect fill="#F1F1F1" height="2" style="stroke:#181818;stroke-width:0.5;" width="4" x="275.5474" y="302"/><rect fill="#F1F1F1" height="2" style="stroke:#181818;stroke-width:0.5;" width="4" x="275.5474" y="306"/><text fill="#000000" font-family="sans-serif" font-size="14" lengthAdjust="spacing" textLength="113.6338" x="158.9136" y="331.8643">iungo Adapter API</text></g><!--entity ValkeyModule--><g id="elem_ValkeyModule"><ellipse cx="51.9136" cy="88" fill="#F1F1F1" rx="8" ry="8" style="stroke:#181818;stroke-width:0.5;"/><text fill="#000000" font-family="sans-serif" font-size="14" lengthAdjust="spacing" textLength="91.8271" x="6" y="121.8643">Valkey Module</text></g><!--link EventHandler to TriggerRouter--><g id="link_EventHandler_TriggerRouter"><path d="M432.9136,123.1 C432.9136,142.47 432.9136,160.26 432.9136,177.72 " fill="none" id="EventHandler-to-TriggerRouter" style="stroke:#181818;stroke-width:1.0;stroke-dasharray:7.0,7.0;"/><polygon fill="#181818" points="432.9136,183.72,436.9136,174.72,432.9136,178.72,428.9136,174.72,432.9136,183.72" style="stroke:#181818;stroke-width:1.0;"/></g><!--link CommandHandler to TriggerRouter--><g id="link_CommandHandler_TriggerRouter"><path d="M299.5836,209 C311.3036,209 317.0236,209 328.7436,209 " fill="none" id="CommandHandler-to-TriggerRouter" style="stroke:#181818;stroke-width:1.0;stroke-dasharray:7.0,7.0;"/><polygon fill="#181818" points="334.7436,209,325.7436,205,329.7436,209,325.7436,213,334.7436,209" style="stroke:#181818;stroke-width:1.0;"/></g><!--link CommandHandler to IungoAPI--><g id="link_CommandHandler_IungoAPI"><path d="M220.9136,234.19 C220.9136,252.25 220.9136,270.83 220.9136,288.88 " fill="none" id="CommandHandler-to-IungoAPI" style="stroke:#181818;stroke-width:1.0;stroke-dasharray:7.0,7.0;"/><polygon fill="#181818" points="220.9136,294.88,224.9136,285.88,220.9136,289.88,216.9136,285.88,220.9136,294.88" style="stroke:#181818;stroke-width:1.0;"/></g><!--reverse link ValkeyModule to IungoAdapter--><g id="link_ValkeyModule_IungoAdapter"><path d="M67.0936,88 C75.5936,88 82.6086,88 94.0386,88 C99.7536,88 105.0723,88 109.2323,88 C109.3623,88 109.4912,88 109.6189,88 C109.6828,88 109.7463,88 109.8096,88 " fill="none" id="ValkeyModule-backto-IungoAdapter" style="stroke:#181818;stroke-width:1.0;stroke-dasharray:7.0,7.0;"/><polygon fill="#181818" points="61.0936,88,70.0936,92,66.0936,88,70.0936,84,61.0936,88" style="stroke:#181818;stroke-width:1.0;"/><text fill="#000000" font-family="sans-serif" font-size="13" lengthAdjust="spacing" textLength="20.96" x="79.2336" y="81.6597">use</text></g><!--SRC=[ZP512i8m44NtESNG0-G0BeGYWaKK4N7b9YHf3QQPqYPA4UzksgRQY8BRDt_-dvzmB2iqqbX8ZanVP0lAcG8X5Qooiaw0DP1r902u4m3-NbhBjgaObx15gtB5cLLeJcPvxQOhPeGE9Zq9u8V5eLP5uIFswCReW0OIhosmBBrT51BOrvYe5wIxRD9jbn4ldfu8LE3DqFd71LuLPm3ryxFzHnWCNuaFGfJnshphFhx-1eNJiZzj80CW9Fe4gcNUPKubC0FNIF84]--></g></svg>